<svg width="28" height="28" viewBox="0 0 28 28" fill="none" xmlns="http://www.w3.org/2000/svg">
<path d="M25.4204 1.72668L26.1088 2.41501C27.0573 3.36468 26.9138 5.04818 25.7856 6.17518L11.5908 20.37L6.99177 22.0523C6.41427 22.2647 5.85194 21.9893 5.73761 21.4398C5.69897 21.2405 5.71716 21.0343 5.79011 20.8448L7.50511 16.2062L21.6603 2.04984C22.7884 0.922842 24.4719 0.777009 25.4204 1.72668ZM10.9713 3.13834C11.1245 3.13834 11.2762 3.16852 11.4177 3.22715C11.5593 3.28578 11.6879 3.37172 11.7962 3.48005C11.9046 3.58839 11.9905 3.717 12.0491 3.85855C12.1078 4.00009 12.1379 4.1518 12.1379 4.30501C12.1379 4.45822 12.1078 4.60993 12.0491 4.75147C11.9905 4.89302 11.9046 5.02163 11.7962 5.12997C11.6879 5.2383 11.5593 5.32424 11.4177 5.38287C11.2762 5.4415 11.1245 5.47168 10.9713 5.47168L6.3046 5.47168C5.68577 5.47168 5.09227 5.71751 4.65469 6.15509C4.2171 6.59268 3.97127 7.18617 3.97127 7.80501L3.97127 21.805C3.97127 22.4238 4.2171 23.0173 4.65469 23.4549C5.09227 23.8925 5.68577 24.1383 6.3046 24.1383L20.3046 24.1383C20.9234 24.1383 21.5169 23.8925 21.9545 23.4549C22.3921 23.0173 22.6379 22.4238 22.6379 21.805L22.6379 17.1383C22.6379 16.8289 22.7609 16.5322 22.9796 16.3134C23.1984 16.0946 23.4952 15.9717 23.8046 15.9717C24.114 15.9717 24.4108 16.0946 24.6296 16.3134C24.8484 16.5322 24.9713 16.8289 24.9713 17.1383L24.9713 21.805C24.9713 23.0427 24.4796 24.2297 23.6044 25.1048C22.7293 25.98 21.5423 26.4717 20.3046 26.4717L6.3046 26.4717C5.06693 26.4717 3.87994 25.98 3.00477 25.1048C2.1296 24.2297 1.63794 23.0427 1.63794 21.805L1.63794 7.80501C1.63794 6.56733 2.1296 5.38035 3.00477 4.50518C3.87994 3.63001 5.06693 3.13834 6.30461 3.13834L10.9713 3.13834Z" fill="#AAAAAA"/>
</svg>
