<svg width="28" height="19" viewBox="0 0 28 19" fill="none" xmlns="http://www.w3.org/2000/svg">
<path d="M13.8401 6.19513C12.8493 6.19513 11.899 6.58058 11.1983 7.26669C10.4977 7.9528 10.1041 8.88336 10.1041 9.85366C10.1041 10.824 10.4977 11.7545 11.1983 12.4406C11.899 13.1267 12.8493 13.5122 13.8401 13.5122C14.831 13.5122 15.7813 13.1267 16.4819 12.4406C17.1826 11.7545 17.5762 10.824 17.5762 9.85366C17.5762 8.88336 17.1826 7.9528 16.4819 7.26669C15.7813 6.58058 14.831 6.19513 13.8401 6.19513ZM13.8401 15.9512C12.1887 15.9512 10.6049 15.3088 9.43713 14.1653C8.26939 13.0218 7.61335 11.4708 7.61335 9.85366C7.61335 8.23649 8.26939 6.68555 9.43713 5.54204C10.6049 4.39852 12.1887 3.7561 13.8401 3.7561C15.4916 3.7561 17.0754 4.39852 18.2431 5.54204C19.4109 6.68555 20.0669 8.23649 20.0669 9.85366C20.0669 11.4708 19.4109 13.0218 18.2431 14.1653C17.0754 15.3088 15.4916 15.9512 13.8401 15.9512ZM13.8401 0.707321C7.61335 0.707321 2.2957 4.5 0.141235 9.85366C2.2957 15.2073 7.61335 19 13.8401 19C20.0669 19 25.3845 15.2073 27.539 9.85366C25.3845 4.5 20.0669 0.707321 13.8401 0.707321Z" fill="#AFADB1"/>
</svg>
