<svg width="100" height="100" viewBox="0 0 100 100" fill="none" xmlns="http://www.w3.org/2000/svg">
<path d="M81.25 23.4375H69.582L63.7969 14.7578C63.6544 14.5443 63.4616 14.3692 63.2354 14.2479C63.0092 14.1267 62.7566 14.063 62.5 14.0625H37.5C37.2434 14.063 36.9908 14.1267 36.7646 14.2479C36.5384 14.3692 36.3456 14.5443 36.2031 14.7578L30.4102 23.4375H18.75C16.678 23.4375 14.6909 24.2606 13.2257 25.7257C11.7606 27.1909 10.9375 29.178 10.9375 31.25V75C10.9375 77.072 11.7606 79.0591 13.2257 80.5243C14.6909 81.9894 16.678 82.8125 18.75 82.8125H81.25C83.322 82.8125 85.3091 81.9894 86.7743 80.5243C88.2394 79.0591 89.0625 77.072 89.0625 75V31.25C89.0625 29.178 88.2394 27.1909 86.7743 25.7257C85.3091 24.2606 83.322 23.4375 81.25 23.4375ZM85.9375 75C85.9375 76.2432 85.4436 77.4355 84.5646 78.3146C83.6855 79.1936 82.4932 79.6875 81.25 79.6875H18.75C17.5068 79.6875 16.3145 79.1936 15.4354 78.3146C14.5564 77.4355 14.0625 76.2432 14.0625 75V31.25C14.0625 30.0068 14.5564 28.8145 15.4354 27.9354C16.3145 27.0564 17.5068 26.5625 18.75 26.5625H31.25C31.5073 26.5627 31.7607 26.4993 31.9876 26.378C32.2145 26.2567 32.408 26.0812 32.5508 25.8672L38.332 17.1875H61.6602L67.4492 25.8672C67.592 26.0812 67.7855 26.2567 68.0124 26.378C68.2393 26.4993 68.4927 26.5627 68.75 26.5625H81.25C82.4932 26.5625 83.6855 27.0564 84.5646 27.9354C85.4436 28.8145 85.9375 30.0068 85.9375 31.25V75ZM50 35.9375C46.9097 35.9375 43.8887 36.8539 41.3192 38.5708C38.7497 40.2877 36.747 42.728 35.5644 45.5831C34.3818 48.4382 34.0723 51.5798 34.6752 54.6108C35.2781 57.6417 36.7663 60.4258 38.9515 62.611C41.1367 64.7962 43.9208 66.2844 46.9517 66.8873C49.9827 67.4902 53.1243 67.1807 55.9794 65.9981C58.8345 64.8155 61.2748 62.8128 62.9917 60.2433C64.7086 57.6738 65.625 54.6528 65.625 51.5625C65.625 47.4185 63.9788 43.4442 61.0485 40.514C58.1183 37.5837 54.144 35.9375 50 35.9375ZM50 64.0625C47.5277 64.0625 45.111 63.3294 43.0554 61.9559C40.9998 60.5824 39.3976 58.6301 38.4515 56.346C37.5054 54.062 37.2579 51.5486 37.7402 49.1239C38.2225 46.6991 39.413 44.4718 41.1612 42.7237C42.9093 40.9755 45.1366 39.785 47.5614 39.3027C49.9861 38.8204 52.4995 39.0679 54.7835 40.014C57.0676 40.9601 59.0199 42.5623 60.3934 44.6179C61.7669 46.6735 62.5 49.0902 62.5 51.5625C62.5 54.8777 61.183 58.0571 58.8388 60.4013C56.4946 62.7455 53.3152 64.0625 50 64.0625Z" fill="black"/>
</svg>
