<svg width="201" height="17" viewBox="0 0 201 17" fill="none" xmlns="http://www.w3.org/2000/svg">
<path d="M14.2383 0.673828V16.5469H12.3574V0.673828H14.2383ZM10.8457 1.04297V15.8086H9V8.47852H6.1875C5.26465 10.3066 3.76172 11.8975 1.51172 13.207L0.386719 11.8184C3.69141 9.8584 5.19434 7.38867 5.48438 4.18945H1.21289V2.58984H7.43555C7.43555 4.12793 7.25098 5.56934 6.82031 6.91406H9V1.04297H10.8457ZM22.0781 4.45312C22.0781 7.41504 23.6162 10.3066 26.1914 11.4316L25.0312 13.0312C23.1855 12.1611 21.8496 10.4736 21.1289 8.39062C20.3906 10.6318 19.0195 12.4512 17.1035 13.3652L15.9082 11.7305C18.5449 10.5615 20.1006 7.51172 20.0918 4.45312V1.95703H22.0781V4.45312ZM29.2852 0.673828V16.582H27.3164V0.673828H29.2852ZM46.1074 7.10742V8.68945H39.832V9.88477H44.3145V13.7695H35.2969V14.9121H44.7539V16.4238H33.3457V12.3809H42.3633V11.3613H33.3105V9.88477H37.8633V8.68945H31.623V7.10742H46.1074ZM44.2617 1.16602V6.08789H33.4512V1.16602H44.2617ZM35.3848 2.69531V4.55859H42.3105V2.69531H35.3848ZM54.4219 0.919922C58.0342 0.919922 60.1611 1.88672 60.1523 3.64453C60.1611 5.40234 58.0342 6.37793 54.4219 6.36914C50.8184 6.37793 48.6826 5.40234 48.6914 3.64453C48.6826 1.88672 50.8184 0.919922 54.4219 0.919922ZM54.4219 2.37891C51.9873 2.3877 50.7393 2.81836 50.7305 3.64453C50.7393 4.49707 51.9873 4.91016 54.4219 4.91016C56.8564 4.91016 58.1133 4.49707 58.1133 3.64453C58.1133 2.81836 56.8564 2.3877 54.4219 2.37891ZM61.6641 7.23047V8.79492H47.1797V7.23047H61.6641ZM59.8711 9.86719V13.752H50.8535V14.9121H60.3105V16.4238H48.9023V12.3633H57.9199V11.3438H48.8672V9.86719H59.8711ZM75.4629 1.97461C75.4541 3.95215 77.6865 5.99121 81.0527 6.45703L80.2617 8.05664C77.5811 7.62598 75.4541 6.29883 74.4258 4.48828C73.3887 6.30762 71.2529 7.62598 68.5547 8.05664L67.7637 6.45703C71.1562 5.99121 73.3711 3.97852 73.3711 1.97461V1.16602H75.4629V1.97461ZM81.6504 9.41016V11.0273H75.3398V16.5469H73.3711V11.0273H67.166V9.41016H81.6504ZM96.0293 0.691406V10.1133H94.043V6.22852H91.3359V4.61133H94.043V0.691406H96.0293ZM90.668 10.5176C94.0078 10.5176 96.0908 11.6426 96.082 13.541C96.0908 15.4482 94.0078 16.5645 90.668 16.5645C87.3018 16.5645 85.2275 15.4482 85.2363 13.541C85.2275 11.6426 87.3018 10.5176 90.668 10.5176ZM90.668 12.0293C88.4355 12.0293 87.1963 12.5566 87.2051 13.541C87.1963 14.5166 88.4355 15.0527 90.668 15.0527C92.8828 15.0527 94.1221 14.5166 94.1309 13.541C94.1221 12.5566 92.874 12.0293 90.668 12.0293ZM88.5586 3.38086C88.5586 5.29688 89.833 7.26562 92.2852 8.0918L91.3184 9.63867C89.543 9.0498 88.2949 7.83691 87.6094 6.33398C86.9062 8.04785 85.5791 9.41016 83.6895 10.0605L82.6875 8.49609C85.2188 7.61719 86.5635 5.49902 86.5723 3.38086V3.29297H83.25V1.71094H91.8281V3.29297H88.5586V3.38086ZM110.742 0.691406V6.98438H113.168V8.63672H110.742V16.5469H108.756V0.691406H110.742ZM107.561 3.09961V4.68164H98.1914V3.09961H101.918V0.919922H103.904V3.09961H107.561ZM102.92 5.73633C105.223 5.72754 106.919 7.27441 106.91 9.46289C106.919 11.6514 105.223 13.1982 102.92 13.1895C100.617 13.1982 98.9209 11.6514 98.9297 9.46289C98.9209 7.27441 100.617 5.72754 102.92 5.73633ZM102.92 7.35352C101.689 7.35352 100.811 8.1709 100.811 9.46289C100.811 10.7549 101.689 11.5811 102.92 11.5723C104.142 11.5811 105.029 10.7549 105.029 9.46289C105.029 8.1709 104.142 7.35352 102.92 7.35352ZM119.83 4.45312C119.83 7.41504 121.368 10.3066 123.943 11.4316L122.783 13.0312C120.938 12.1611 119.602 10.4736 118.881 8.39062C118.143 10.6318 116.771 12.4512 114.855 13.3652L113.66 11.7305C116.297 10.5615 117.853 7.51172 117.844 4.45312V1.95703H119.83V4.45312ZM127.037 0.673828V16.582H125.068V0.673828H127.037ZM136.406 1.79883C136.406 2.9502 136.239 3.99609 135.914 4.94531H137.865V0.990234H139.711V9.5332H137.865V6.52734H135.141C134.156 8.05664 132.592 9.26074 130.412 10.166L129.445 8.70703C132.469 7.52051 134.042 5.75391 134.367 3.39844H130.219V1.79883H136.406ZM142.98 0.691406V9.74414H141.1V0.691406H142.98ZM135.158 11.0801C135.167 12.4072 135.756 13.7959 137.109 14.6836C138.48 13.7432 139.104 12.2842 139.096 11.0801V10.2715H141.047V11.0801C141.038 12.75 142.04 14.3408 144.123 14.9824L143.156 16.4414C141.618 15.9141 140.59 14.8945 140.045 13.6113C139.535 14.877 138.604 16.002 137.145 16.5996C135.642 16.0283 134.701 14.9473 134.209 13.6641C133.629 14.8945 132.618 15.9053 131.15 16.4414L130.184 14.9824C132.188 14.3057 133.26 12.7061 133.26 11.0801V10.2715H135.158V11.0801ZM148.641 10.1836V11.7129H155.619V10.1836H157.553V16.3711H146.689V10.1836H148.641ZM148.641 14.8066H155.619V13.1895H148.641V14.8066ZM159.416 7.72266V9.28711H144.932V7.72266H159.416ZM153.176 1.41211C153.185 3.14355 155.355 4.91895 158.66 5.31445L157.939 6.86133C155.303 6.50977 153.202 5.33203 152.174 3.71484C151.154 5.33203 149.062 6.50098 146.408 6.86133L145.688 5.31445C149.019 4.91016 151.163 3.16992 151.172 1.41211V0.849609H153.176V1.41211ZM173.777 0.673828V16.5469H171.809V0.673828H173.777ZM163.371 2.20312V10.8867C165.56 10.8604 167.95 10.6758 170.385 10.1836L170.631 11.8359C167.862 12.3984 165.252 12.583 162.791 12.5742H161.402V2.20312H163.371ZM188.719 0.673828V7.00195H190.934V8.63672H188.719V16.5469H186.75V0.673828H188.719ZM180.791 2.32617C180.8 6.50977 180.229 10.0254 177.381 13.1367L175.816 12.0117C178.04 9.64746 178.787 7.13379 178.945 3.94336H176.467V2.32617H180.791ZM185.203 2.32617C185.203 6.65039 184.746 10.7197 181.898 14.1562L180.334 13.0664C182.566 10.3594 183.217 7.41504 183.34 3.94336H181.336V2.32617H185.203ZM194.871 10.7988C194.88 7.14258 197.842 7.59961 197.842 5.64844C197.842 4.65527 197.077 4.02246 195.979 4.01367C194.774 4.02246 194.045 4.77832 194.045 6.01758H191.812C191.821 3.5918 193.579 2.02734 196.066 2.02734C198.36 2.02734 200.162 3.33691 200.162 5.56055C200.162 8.45215 197.104 8.08301 197.104 10.7285V11.0449H194.871V10.7988ZM195.996 15.1758C195.161 15.1758 194.563 14.5957 194.572 13.8047C194.563 13.0137 195.161 12.4336 195.996 12.4336C196.813 12.4336 197.411 13.0137 197.42 13.8047C197.411 14.5957 196.813 15.1758 195.996 15.1758Z" fill="black"/>
</svg>
