<svg width="16" height="15" viewBox="0 0 16 15" fill="none" xmlns="http://www.w3.org/2000/svg">
<path d="M8 13.75L8.345 14.416C8.23839 14.4712 8.12007 14.5001 8 14.5001C7.87993 14.5001 7.76161 14.4712 7.655 14.416L7.647 14.412L7.629 14.402C7.52425 14.348 7.42089 14.2913 7.319 14.232C6.10001 13.5386 4.95011 12.7303 3.885 11.818C2.045 10.231 0 7.85 0 5C0 2.336 2.086 0.5 4.25 0.5C5.797 0.5 7.153 1.302 8 2.52C8.847 1.302 10.203 0.5 11.75 0.5C13.914 0.5 16 2.336 16 5C16 7.85 13.955 10.231 12.115 11.818C10.9596 12.8064 9.70494 13.6724 8.371 14.402L8.353 14.412L8.347 14.415H8.345L8 13.75ZM4.25 2C2.914 2 1.5 3.164 1.5 5C1.5 7.15 3.08 9.144 4.865 10.682C5.83895 11.5149 6.8885 12.2551 8 12.893C9.1115 12.2551 10.161 11.5149 11.135 10.682C12.92 9.144 14.5 7.15 14.5 5C14.5 3.164 13.086 2 11.75 2C10.377 2 9.141 2.986 8.721 4.456C8.67677 4.61317 8.5824 4.75159 8.45224 4.85018C8.32208 4.94877 8.16328 5.00212 8 5.00212C7.83672 5.00212 7.67791 4.94877 7.54776 4.85018C7.4176 4.75159 7.32323 4.61317 7.279 4.456C6.859 2.986 5.623 2 4.25 2Z" fill="#8C8A8F"/>
</svg>
