<svg width="100" height="100" viewBox="0 0 100 100" fill="none" xmlns="http://www.w3.org/2000/svg">
<path d="M37.4929 5.93007H37.5643C40.4923 5.93007 42.8489 3.28558 42.8489 0H36.0646V0.048082C30.1662 0.452327 24.6276 3.36767 20.5797 8.19892C16.5318 13.0302 14.2798 19.413 14.2835 26.0442H15.1476C14.8148 26.9309 14.7837 27.9238 15.0602 28.8345C15.3366 29.7452 15.9014 30.5103 16.6473 30.9846C16.2152 31.3003 15.8601 31.7321 15.6145 32.2408C15.3688 32.7495 15.2402 33.319 15.2404 33.8976C15.2404 38.0246 16.7616 41.7389 19.2003 44.3954C18.5755 46.1344 18.1577 48.1217 17.9684 50.3816L6.16021 37.103C4.55341 35.34 1.8754 36.7023 1.98252 39.2266C2.16106 44.2351 3.9821 49.1635 7.37425 52.97C10.3046 56.275 14.1481 58.3658 18.2755 58.9001C18.4184 59.8377 18.5897 60.7592 18.7968 61.6647H2.44671C0.197183 61.6647 -0.838313 64.75 0.804199 66.4729C3.57031 69.3244 7.04752 71.1583 10.7692 71.7284C14.4908 72.2985 18.2788 71.5776 21.6248 69.6623C22.039 70.5038 22.4818 71.3171 22.9531 72.1145C20.2222 73.75 17.903 76.1319 16.2097 79.0397C14.5165 81.9475 13.504 85.2875 13.2659 88.7508C13.0873 91.275 15.7296 92.7175 17.3721 91.0346L28.5984 79.2907C29.4339 80.1001 30.3087 80.8654 31.2192 81.5746C31.0445 82.6073 30.9394 83.6534 30.905 84.7039C30.7265 90.1531 32.4047 95.1616 35.3327 99.0082C36.7966 100.931 39.6175 99.8897 39.6889 97.3253L40.0531 86.4509C43.269 87.5818 46.6201 88.1547 49.9903 88.1497C53.3544 88.1549 56.6994 87.5834 59.9096 86.4549L60.256 96.8445C60.3274 99.4089 63.1482 100.451 64.6122 98.5274C67.5402 94.6808 69.2184 89.6723 69.0398 84.2231C69.0115 83.326 68.9316 82.432 68.8006 81.5465C69.6576 80.8734 70.4895 80.1522 71.2822 79.3909L82.4299 91.0346C84.0724 92.7576 86.7504 91.275 86.5719 88.7508C86.2148 83.7422 84.2152 78.854 80.6803 75.1276C79.5765 73.9606 78.3484 72.9513 77.0239 72.1225C77.5136 71.295 77.9723 70.4448 78.3986 69.5742C80.9527 70.9888 83.7629 71.7237 86.6112 71.7218C91.4673 71.7218 95.8949 69.6383 99.1799 66.2325C100.858 64.5096 99.7869 61.3843 97.5374 61.3843H81.248C81.4496 60.463 81.6164 59.5326 81.7479 58.5955C85.8339 58.0192 89.6309 55.9262 92.5349 52.6494C95.9628 48.8029 97.7838 43.8345 97.9623 38.7859C98.0695 36.2616 95.3557 34.8592 93.7489 36.6623L81.9657 49.8847C81.7841 47.8367 81.3291 45.8309 80.616 43.9346C82.905 41.2248 84.1782 37.6313 84.1724 33.8976C84.1724 33.3225 84.0452 32.7564 83.8021 32.2501C83.5591 31.7437 83.2078 31.3131 82.7798 30.9967C83.5321 30.5259 84.1032 29.7604 84.3838 28.8467C84.6645 27.9329 84.635 26.9351 84.3009 26.0442H85.6971C85.7006 19.4824 83.4954 13.1612 79.5228 8.34605C75.5502 3.5309 70.1035 0.577155 64.273 0.0761295V0H57.1316C57.1316 3.28558 59.4883 5.93007 62.4162 5.93007H62.4877V7.25232H62.4162C59.4883 7.25232 57.1316 9.89681 57.1316 13.1824H62.8911C63.6753 16.8464 65.5356 20.1075 68.1725 22.4407C70.8094 24.7738 74.0694 26.0432 77.4274 26.0442H77.8487C77.5147 26.9351 77.4851 27.9329 77.7658 28.8467C78.0464 29.7604 78.6176 30.5259 79.3698 30.9967C78.9419 31.3131 78.5906 31.7437 78.3475 32.2501C78.1045 32.7564 77.9772 33.3225 77.9772 33.8976C77.9772 35.4923 77.5416 36.9708 76.7989 38.1969C73.6674 35.2559 69.3184 33.6972 64.1944 32.8879C64.3007 32.3321 64.3004 31.7574 64.1935 31.2018C64.0866 30.6462 63.8756 30.1225 63.5745 29.6655C63.2734 29.2085 62.8891 28.8285 62.4471 28.5509C62.0051 28.2733 61.5155 28.1045 61.0109 28.0555C60.5063 28.0065 59.9981 28.0786 59.5202 28.2669C59.0423 28.4552 58.6056 28.7554 58.239 29.1476C57.8725 29.5399 57.5845 30.0152 57.3942 30.5419C57.2038 31.0686 57.1156 31.6348 57.1352 32.2027C54.7548 32.0953 52.3726 32.0459 49.9903 32.0545C47.5337 32.0545 45.1449 32.0945 42.8489 32.2027V32.0545C42.8482 31.4931 42.7424 30.9381 42.5383 30.4255C42.3342 29.913 42.0364 29.4543 41.6642 29.0791C41.2921 28.704 40.8538 28.4208 40.3778 28.248C39.9018 28.0751 39.3988 28.0164 38.9013 28.0756C38.4038 28.1349 37.923 28.3108 37.4899 28.592C37.0569 28.8732 36.6814 29.2533 36.3877 29.7078C36.094 30.1622 35.8886 30.6809 35.785 31.2301C35.6814 31.7793 35.6818 32.3468 35.7861 32.8959C30.473 33.7373 25.9918 35.3881 22.8353 38.5455C21.9251 37.2115 21.4331 35.5776 21.4356 33.8976C21.4356 32.6955 20.8893 31.6297 20.0609 31.0087C20.8182 30.5403 21.3942 29.7739 21.6777 28.8571C21.9612 27.9404 21.9322 26.9384 21.5963 26.0442H22.5532C25.9112 26.0432 29.1712 24.7738 31.808 22.4407C34.4449 20.1075 36.3052 16.8464 37.0894 13.1824H42.8489C42.8489 9.89681 40.4923 7.25232 37.5643 7.25232H37.4929V5.93007Z" fill="white"/>
</svg>
