<svg width="100" height="100" viewBox="0 0 100 100" fill="none" xmlns="http://www.w3.org/2000/svg">
<path d="M75 54.1583H54.1667V74.9917C54.1667 76.0967 53.7277 77.1566 52.9463 77.938C52.1649 78.7194 51.1051 79.1583 50 79.1583C48.895 79.1583 47.8352 78.7194 47.0538 77.938C46.2724 77.1566 45.8334 76.0967 45.8334 74.9917V54.1583H25C23.895 54.1583 22.8352 53.7194 22.0538 52.938C21.2724 52.1566 20.8334 51.0968 20.8334 49.9917C20.8334 48.8866 21.2724 47.8268 22.0538 47.0454C22.8352 46.264 23.895 45.825 25 45.825H45.8334V24.9917C45.8334 23.8866 46.2724 22.8268 47.0538 22.0454C47.8352 21.264 48.895 20.825 50 20.825C51.1051 20.825 52.1649 21.264 52.9463 22.0454C53.7277 22.8268 54.1667 23.8866 54.1667 24.9917V45.825H75C76.1051 45.825 77.1649 46.264 77.9463 47.0454C78.7277 47.8268 79.1667 48.8866 79.1667 49.9917C79.1667 51.0968 78.7277 52.1566 77.9463 52.938C77.1649 53.7194 76.1051 54.1583 75 54.1583Z" fill="black"/>
</svg>
